<svg xmlns="http://www.w3.org/2000/svg" viewBox="0 0 14.4 14.8"><defs><style>.cls-1{fill:#99afc5;}</style></defs><title>select_1</title><g id="Layer_2" data-name="Layer 2"><g id="Layer_2-2" data-name="Layer 2"><path class="cls-1" d="M14.39,11.56l-.5.26.5-.11A5.84,5.84,0,0,0,11.23,6.5a3.17,3.17,0,0,0,.48-1.67,3.2,3.2,0,0,0-6.41,0A3.17,3.17,0,0,0,5.79,6.5a5.84,5.84,0,0,0-3.17,5.21v.51l.14.14a8,8,0,0,0,11.49,0l.14-.15ZM8.51,2.63a2.2,2.2,0,1,1-2.2,2.2A2.21,2.21,0,0,1,8.51,2.63Zm4.89,9.18a7,7,0,0,1-9.78,0v-.1A4.85,4.85,0,0,1,6.47,7.28a3.14,3.14,0,0,0,4.08,0,4.85,4.85,0,0,1,2.85,4.43Z"/><path class="cls-1" d="M3.18,11.24A6.7,6.7,0,0,1,1,9.82V9.73A4.65,4.65,0,0,1,3.72,5.48a3.07,3.07,0,0,0,2,.72,3,3,0,0,0,.54,0l-.29-1-.25,0a2.1,2.1,0,1,1,2-2.81l.89-.5a3.1,3.1,0,0,0-6,1.21A3.07,3.07,0,0,0,3,4.7a5.64,5.64,0,0,0-3,5v.5l.14.14a7.69,7.69,0,0,0,2.75,1.82Z"/></g></g></svg>