<?xml version="1.0" encoding="utf-8"?>
<!-- Generator: Adobe Illustrator 19.0.0, SVG Export Plug-In . SVG Version: 6.00 Build 0)  -->
<svg version="1.1" id="Layer_1" xmlns="http://www.w3.org/2000/svg" xmlns:xlink="http://www.w3.org/1999/xlink" x="0px" y="0px"
	 viewBox="0 0 25 25" style="enable-background:new 0 0 25 25;" xml:space="preserve">
<style type="text/css">
	.st0{fill:#69798c;}
</style>
<path class="st0" d="M17.2,7.8c-0.3-0.3-0.8-0.3-1.1,0l-3.7,3.7L8.8,7.8c-0.3-0.3-0.8-0.3-1.1,0c-0.3,0.3-0.3,0.8,0,1.1l3.7,3.7
	l-3.7,3.7c-0.3,0.3-0.3,0.8,0,1.1c0.1,0.1,0.3,0.2,0.5,0.2c0.2,0,0.4-0.1,0.5-0.2l3.7-3.7l3.7,3.7c0.1,0.1,0.3,0.2,0.5,0.2
	c0.2,0,0.4-0.1,0.5-0.2c0.3-0.3,0.3-0.8,0-1.1l-3.7-3.7l3.7-3.7C17.5,8.5,17.5,8.1,17.2,7.8L17.2,7.8z M17.2,7.8"/>
<path class="st0" d="M21.3,3.7c-2.4-2.4-5.5-3.6-8.8-3.6C9.2,0.1,6,1.3,3.7,3.7c-4.9,4.9-4.9,12.8,0,17.6c2.4,2.4,5.5,3.6,8.8,3.6
	c3.3,0,6.5-1.3,8.8-3.6c2.4-2.4,3.6-5.5,3.6-8.8C24.9,9.2,23.6,6,21.3,3.7L21.3,3.7z M20.2,20.2c-2.1,2.1-4.8,3.2-7.7,3.2
	c-2.9,0-5.7-1.1-7.7-3.2C0.5,16,0.5,9,4.7,4.8c2.1-2.1,4.8-3.2,7.7-3.2c2.9,0,5.7,1.1,7.7,3.2c2.1,2.1,3.2,4.8,3.2,7.7
	C23.5,15.4,22.3,18.2,20.2,20.2L20.2,20.2z M20.2,20.2"/>
</svg>
