<svg xmlns="http://www.w3.org/2000/svg" viewBox="0 0 54.69 147.2"><defs><style>.cls-1{isolation:isolate;}.cls-2,.cls-4{fill:none;stroke-linecap:round;stroke-miterlimit:10;}.cls-2{stroke:#33608c;}.cls-3{fill:#f5faff;mix-blend-mode:multiply;}.cls-4{stroke:#71b0fb;stroke-width:2px;}</style></defs><title>Asset 32</title><g class="cls-1"><g id="Layer_2" data-name="Layer 2"><g id="Layer_11" data-name="Layer 11"><path class="cls-2" d="M40.69,143.58"/><path class="cls-3" d="M.28,137.43s12.55,2.34,17,3.44c5.68,1.4,23.14,5.61,23.14,5.61,1.35-16,4-37.61,6-61.47C47.52,71,50.6,55.63,52,42.14,54.26,20,56.33,3.09,39.69,1.28,25-.32,22.52,17.55,19.44,31.48c-2.87,13-6.21,36-7.5,42.4C8.68,90.15,2.9,129.2.82,137.07"/><path class="cls-4" d="M1,136.89C3.08,129,8.87,90,12.12,73.69c1.29-6.44,4.64-29.41,7.5-42.4C22.7,17.37,25.18-.5,39.87,1.1,56.51,2.91,54.45,19.77,52.17,42c-1.38,13.48-4.47,28.86-5.61,42.85-1.93,23.86-4.84,45.42-6.19,61.38"/><path class="cls-4" d="M25.14,48.06S39,49,42.22,50.1"/><path class="cls-4" d="M15.1,98.92s14.1,0,19.53,2.17"/><path class="cls-4" d="M12.69,139.35s8.65.76,13.86,3.4"/></g></g></g></svg>