<svg xmlns="http://www.w3.org/2000/svg" viewBox="0 0 40.79 116"><defs><style>.cls-1{isolation:isolate;}.cls-2{fill:none;stroke:#71b0fb;stroke-linecap:round;stroke-linejoin:round;stroke-width:2px;}.cls-3{fill:#f5faff;mix-blend-mode:multiply;}</style></defs><title>Asset 35</title><g class="cls-1"><g id="Layer_2" data-name="Layer 2"><g id="Layer_11" data-name="Layer 11"><path class="cls-2" d="M10.31,115C9.13,102.33,5.38,79.45,3.39,57.51c-.72-7.92-1-15.15-1.79-22.2C0,20.66,1.29,2.38,10.63,1.13,22-.38,25.17,11.07,27.63,26.45c1.06,6.64,2.63,13.84,3.62,21.34,3.3,25.06,5.44,40,8.54,50.31"/><path class="cls-2" d="M21.66,110.88a57.94,57.94,0,0,1,8.5-5.24"/><path class="cls-2" d="M11.72,68.4a28,28,0,0,1,11.66-4"/><path class="cls-2" d="M9.62,38.83A30.18,30.18,0,0,1,18,37.21"/><path class="cls-3" d="M10.14,116c-.5-11.11-4.5-33.7-6.76-58.49-.72-7.92-1-15.15-1.79-22.2C0,20.66,1.29,2.38,10.63,1.13,22-.38,25.17,11.07,27.63,26.45c1.06,6.64,2.63,13.84,3.62,21.34,3.3,25.06,6,40.2,9.06,50.55A141.81,141.81,0,0,1,25.14,109.5,54.24,54.24,0,0,1,10.14,116Z"/></g></g></g></svg>