<svg xmlns="http://www.w3.org/2000/svg" viewBox="0 0 37.8 149.86"><defs><style>.cls-1{isolation:isolate;}.cls-2{fill:#f5faff;mix-blend-mode:multiply;}.cls-3{fill:none;stroke:#71b0fb;stroke-linecap:round;stroke-miterlimit:10;stroke-width:2px;}</style></defs><title>Asset 33</title><g class="cls-1"><g id="Layer_2" data-name="Layer 2"><g id="Layer_11" data-name="Layer 11"><path class="cls-2" d="M.33,149.8s11.75-3.5,18.5-4c5.83-.43,17.75-2.25,17.75-2.25,0-17.75-.25-34.25.25-60.25.27-14,1-30.92-.05-44.43C35,16.63,34.27.09,17.58,1.3,2.84,2.36,4.35,20.3,3.83,34.55c-.49,13.3-.3,36.18-.75,42.73-1.25,18-1.37,63.66-2,71.77Z"/><path class="cls-3" d="M12.3,146.24c2.08-.45,10.76-1.9,14-1.9"/><path class="cls-3" d="M7.51,95.7c6.51,0,13-1.08,18.44,0"/><path class="cls-3" d="M8.59,46.89A99.27,99.27,0,0,1,26,45.8"/><path class="cls-3" d="M3.17,66.41c.34-7.88.44-18.06.36-27.12C3.35,18.14,5.7,1.28,18.31,1,33.41.68,35.72,15.06,36.26,44.72c.18,9.77.54,20.89.54,32.55,0,48.83-2.17,53.52-1.08,65.09"/><path class="cls-3" d="M1,148.86c0-1.94,1.18-59.66,2.17-82.45"/><path class="cls-3" d="M12.3,146.24c2.08-.45,10.76-1.9,14-1.9"/><path class="cls-3" d="M7.51,95.7c6.51,0,13-1.08,18.44,0"/><path class="cls-3" d="M8.59,46.89A99.27,99.27,0,0,1,26,45.8"/></g></g></g></svg>