<svg xmlns="http://www.w3.org/2000/svg" viewBox="0 0 19.26 19.26"><defs><style>.cls-1{fill:#3ec880;}</style></defs><title>myprofile_selection_1</title><g id="Layer_2" data-name="Layer 2"><g id="Layer_1-2" data-name="Layer 1"><path class="cls-1" d="M9.63,0a9.63,9.63,0,1,0,9.63,9.63A9.64,9.64,0,0,0,9.63,0Zm0,.7a8.92,8.92,0,0,1,7,14.49,6.94,6.94,0,0,0-4-5.81,3.66,3.66,0,0,0,.72-2.17,3.69,3.69,0,0,0-7.39,0,3.66,3.66,0,0,0,.72,2.17,6.94,6.94,0,0,0-4,5.81A8.92,8.92,0,0,1,9.63.7Zm-3,6.51a3,3,0,1,1,3,3A3,3,0,0,1,6.64,7.21Zm3,11.36a8.9,8.9,0,0,1-6.31-2.62v-.23A6.27,6.27,0,0,1,7.15,9.92a3.64,3.64,0,0,0,5,0,6.27,6.27,0,0,1,3.83,5.79v.13h0v.1A8.9,8.9,0,0,1,9.63,18.56Z"/></g></g></svg>