<?xml version="1.0" encoding="utf-8"?>
<!-- Generator: Adobe Illustrator 19.0.0, SVG Export Plug-In . SVG Version: 6.00 Build 0)  -->
<svg version="1.1" xmlns="http://www.w3.org/2000/svg" xmlns:xlink="http://www.w3.org/1999/xlink" x="0px" y="0px"
	 viewBox="0 0 25 25" style="enable-background:new 0 0 25 25;" xml:space="preserve">
<style type="text/css">
	.st0{display:none;}
	.st1{display:inline;}
	.st2{fill:#5A77A4;}
	.st3{display:inline;fill:#5A77A4;}
</style>
<g id="Navigate_to_Last" class="st0">
	<g class="st1">
		<path class="st2" d="M19.1,0.9v23.2c0,0.2,0.1,0.3,0.3,0.3h3c0.2,0,0.3-0.1,0.3-0.3V0.9c0-0.2-0.1-0.3-0.3-0.3h-3
			C19.3,0.6,19.1,0.7,19.1,0.9L19.1,0.9z"/>
		<path class="st2" d="M11.8,12.5L2.7,3.4C2.1,2.7,2.1,1.6,2.7,1c0.7-0.7,1.7-0.7,2.4,0l10.3,10.3c0.3,0.3,0.5,0.8,0.5,1.2
			c0,0.4-0.2,0.9-0.5,1.2L5.1,24c-0.7,0.7-1.7,0.7-2.4,0c-0.7-0.7-0.7-1.7,0-2.4L11.8,12.5z M18.1,0.5"/>
	</g>
</g>
<g id="Navigate_to_Start" class="st0">
	<g class="st1">
		<path class="st2" d="M5.9,24.1l0-23.2c0-0.2-0.1-0.3-0.3-0.3l-3,0c-0.2,0-0.3,0.1-0.3,0.3l0,23.2c0,0.2,0.1,0.3,0.3,0.3l3,0
			C5.7,24.4,5.9,24.3,5.9,24.1L5.9,24.1z"/>
		<path class="st2" d="M13.2,12.5l9.1,9.1c0.7,0.7,0.7,1.7,0,2.4c-0.7,0.7-1.7,0.7-2.4,0L9.6,13.7c-0.3-0.3-0.5-0.8-0.5-1.2
			c0-0.4,0.2-0.9,0.5-1.2L19.9,1c0.7-0.7,1.7-0.7,2.4,0c0.7,0.7,0.7,1.7,0,2.4L13.2,12.5z M6.9,24.5"/>
	</g>
</g>
<g id="Navigate_Forward">
	<path class="st2" d="M15,12.5L5.9,3.4C5.2,2.7,5.2,1.6,5.9,1c0.7-0.7,1.7-0.7,2.4,0l10.3,10.3c0.3,0.3,0.5,0.8,0.5,1.2
		c0,0.4-0.2,0.9-0.5,1.2L8.3,24c-0.7,0.7-1.7,0.7-2.4,0c-0.7-0.7-0.7-1.7,0-2.4L15,12.5z M19.6,2.7"/>
</g>
<g id="Navigate_Backward" class="st0">
	<path class="st3" d="M9.7,12.5l9.1,9.1c0.7,0.7,0.7,1.7,0,2.4c-0.7,0.7-1.7,0.7-2.4,0L6.1,13.7c-0.3-0.3-0.5-0.8-0.5-1.2
		c0-0.4,0.2-0.9,0.5-1.2L16.5,1c0.7-0.7,1.7-0.7,2.4,0c0.7,0.7,0.7,1.7,0,2.4L9.7,12.5z"/>
</g>
</svg>
