<svg xmlns="http://www.w3.org/2000/svg" viewBox="0 0 18.49 19.97"><defs><style>.cls-1{fill:#3ec880;}</style></defs><title>patients_selection</title><g id="Layer_2" data-name="Layer 2"><g id="Layer_1-2" data-name="Layer 1"><path class="cls-1" d="M9,5.57V1.2C9,.43,8.23,0,7.47,0H6.19a.52.52,0,0,0-.58.5.52.52,0,0,0,.58.5H7.47c.13,0,.53.07.53.2V5.57A3.47,3.47,0,0,1,4.5,8.79,3.48,3.48,0,0,1,1,5.57V1.2c0-.13.36-.2.49-.2H2.76A.52.52,0,0,0,3.34.5.52.52,0,0,0,2.76,0H1.49A1.33,1.33,0,0,0,0,1.2V5.57a4.5,4.5,0,0,0,9,0Z"/><path class="cls-1" d="M14.5,11.27a.52.52,0,0,0-.5.58v2.59a4.5,4.5,0,0,1-9,0V9.94a.51.51,0,1,0-1,0v4.51a5.5,5.5,0,1,0,11,0V11.85A.52.52,0,0,0,14.5,11.27Z"/><path class="cls-1" d="M14.37,3.6a4.12,4.12,0,1,0,4.12,4.12A4.13,4.13,0,0,0,14.37,3.6Zm0,7.09a3,3,0,1,1,3-3A3,3,0,0,1,14.37,10.69Z"/><circle class="cls-1" cx="14.37" cy="7.72" r="1.22"/></g></g></svg>