<svg xmlns="http://www.w3.org/2000/svg" viewBox="0 0 41.84 141.28"><defs><style>.cls-1{isolation:isolate;}.cls-2{fill:none;stroke:#71b0fb;stroke-linecap:round;stroke-linejoin:round;stroke-width:2px;}.cls-3{fill:#f5faff;mix-blend-mode:multiply;}</style></defs><title>Asset 34</title><g class="cls-1"><g id="Layer_2" data-name="Layer 2"><g id="Layer_11" data-name="Layer 11"><path class="cls-2" d="M26.31,140.28c-1.21-10.85-3.25-33.9-5.42-64.28C20.06,64.55,19,49.8,18.17,37.49,16.72,14.89,21.68,2.37,31.73,1.15,43.67-.3,47.1,8.74,48.85,26.47c.87,8.79,1.62,19.36,2.41,31.09,2,30.55,3.8,56.55,6.51,61.84" transform="translate(-16.92)"/><path class="cls-2" d="M57.77,119.4" transform="translate(-16.92)"/><path class="cls-2" d="M37.13,132.31A30.64,30.64,0,0,1,45,127.1" transform="translate(-16.92)"/><path class="cls-2" d="M29.56,82.51A25.76,25.76,0,0,1,40.5,79.44" transform="translate(-16.92)"/><path class="cls-2" d="M25.22,46.71c3.25-1.08,8.68-3.25,14.1-3.25" transform="translate(-16.92)"/><path class="cls-2" d="M5.42,110" transform="translate(-16.92)"/><path class="cls-2" d="M0,82.78" transform="translate(-16.92)"/><path class="cls-3" d="M42.85,130.25c4.75-2.36,15-10,15-10-2-8-4.5-29-5-38.5-.67-12.72-2.17-32-3-46.5-1-17.5-1-36-18.5-34C18,2.77,16.55,25.87,17.85,38.75c1.22,12,2.59,30,3,36,1.12,16.36,5.06,59.13,5.5,66.5A75.28,75.28,0,0,1,42.85,130.25Z" transform="translate(-16.92)"/></g></g></g></svg>