<svg xmlns="http://www.w3.org/2000/svg" viewBox="0 0 14.75 14.46"><defs><style>.cls-1{fill:none;stroke:#91abc5;stroke-linecap:round;stroke-miterlimit:10;}</style></defs><title>select</title><g id="Layer_2" data-name="Layer 2"><g id="Layer_2-2" data-name="Layer 2"><path class="cls-1" d="M8.63,2.17a2.69,2.69,0,0,0-2.6,2v.08a2.72,2.72,0,0,0-.07.62,2.68,2.68,0,0,0,.69,1.8h0a2.68,2.68,0,0,0,4,0h0a2.68,2.68,0,0,0,.69-1.8,2.72,2.72,0,0,0-.07-.62V4.15a2.69,2.69,0,0,0-2.6-2h0"/><path class="cls-1" d="M6.34,6.47l0,0-.17.08h0a5.64,5.64,0,0,0-2.53,2.7h0l0,.06,0,.1,0,.09,0,.1,0,.09,0,.1,0,.09,0,.11,0,.09,0,.11,0,.09,0,.11,0,.09,0,.11v.09l0,.12v.29s0,.09,0,.14v.07c0,.07,0,.14,0,.21s0,.06,0,.09l0,0a7.82,7.82,0,0,0,11.05,0l0,0s0-.06,0-.09,0-.14,0-.21v-.07s0-.09,0-.14v-.29l0-.12v-.09l0-.11,0-.09,0-.11,0-.09,0-.11L14,10l0-.11,0-.09,0-.1,0-.09,0-.1,0-.09,0-.1,0-.06h0a5.64,5.64,0,0,0-2.53-2.7h0l-.17-.08,0,0"/><path class="cls-1" d="M8.37,1.86A2.69,2.69,0,0,0,6,.5H6a2.69,2.69,0,0,0-2.6,2v.08a2.72,2.72,0,0,0-.07.62A2.68,2.68,0,0,0,4,5H4a2.69,2.69,0,0,0,2,.89"/><path class="cls-1" d="M3.74,4.8l0,0-.17.08h0A5.64,5.64,0,0,0,1,7.62H1l0,.06,0,.1,0,.09,0,.1,0,.09,0,.1,0,.09,0,.11,0,.09,0,.11,0,.09,0,.11,0,.09L.58,9V9l0,.12v.29s0,.09,0,.14v.07c0,.07,0,.14,0,.21s0,.06,0,.09l0,0A7.77,7.77,0,0,0,3,11.66"/></g></g></svg>