<?xml version="1.0" encoding="iso-8859-1"?>
<!-- Generator: Adobe Illustrator 19.0.0, SVG Export Plug-In . SVG Version: 6.00 Build 0)  -->
<svg version="1.1" xmlns="http://www.w3.org/2000/svg" xmlns:xlink="http://www.w3.org/1999/xlink" x="0px" y="0px"
	 viewBox="0 0 146 163" style="enable-background:new 0 0 146 163;" xml:space="preserve">
<g id="Layer_1">
	<path style="fill:#283F5A;" d="M106.362,94.912V89.03h4.391V73.666h-4.391v-5.583c0-3.632-2.952-6.583-6.583-6.583H41.241
		c-3.632,0-6.583,2.952-6.583,6.583v26.829c0,3.636,2.952,6.588,6.583,6.588h58.537C103.41,101.5,106.362,98.548,106.362,94.912
		L106.362,94.912z M41.241,97.109c-1.209,0-2.194-0.984-2.194-2.197V68.083c0-1.209,0.985-2.193,2.194-2.193h58.537
		c1.209,0,2.194,0.984,2.194,2.193v26.829c0,1.213-0.985,2.197-2.194,2.197H41.241z M89.634,94.718"/>
</g>
<g id="_x35_" style="display:none;">
	<polygon style="display:inline;fill:#57B67E;" points="89.301,94.718 89.301,68.282 98.933,68.282 98.933,94.713 89.301,94.713 	
		"/>
</g>
<g id="_x34_" style="display:none;">
	<polygon style="display:inline;fill:#57B67E;" points="77.386,94.718 77.386,68.282 87.019,68.282 87.019,94.713 77.386,94.713 	
		"/>
</g>
<g id="_x33_" style="display:none;">
	<polygon style="display:inline;fill:#57B67E;" points="65.471,94.718 65.471,68.282 75.105,68.282 75.105,94.713 65.471,94.713 	
		"/>
</g>
<g id="_x32_" style="display:none;">
	<polygon style="display:inline;fill:#57B67E;" points="53.559,94.718 53.559,68.282 63.188,68.282 63.188,94.713 53.559,94.713 	
		"/>
</g>
<g id="_x31_" style="display:none;">
	<polygon style="display:inline;fill:#57B67E;" points="41.642,94.718 41.642,68.282 51.275,68.282 51.275,94.713 41.642,94.713 	
		"/>
</g>
<g id="_x32__orange" style="display:none;">
	<polygon style="display:inline;fill:#EF8E1B;" points="53.556,94.718 53.556,68.282 63.19,68.282 63.19,94.713 53.556,94.713 	"/>
</g>
<g id="_x31__orange" style="display:none;">
	<polygon style="display:inline;fill:#EF8E1B;" points="41.642,94.718 41.642,68.282 51.276,68.282 51.276,94.713 41.642,94.713 	
		"/>
</g>
<g id="_x31__red">
	<polygon style="fill:#E94344;" points="41.642,94.718 41.642,68.282 51.276,68.282 51.276,94.713 41.642,94.713 	"/>
</g>
</svg>
