<svg xmlns="http://www.w3.org/2000/svg" viewBox="0 0 252.25 422.58"><defs><style>.cls-1,.cls-3{fill:none;stroke:#33608c;stroke-linecap:round;}.cls-1{stroke-miterlimit:10;}.cls-2{opacity:0.2;}.cls-3{stroke-linejoin:round;stroke-width:2px;}</style></defs><title>Asset 27</title><g id="Layer_2" data-name="Layer 2"><g id="Layer_11" data-name="Layer 11"><path class="cls-1" d="M158.81,149"/><g class="cls-2"><path class="cls-3" d="M52.28,421.58s2-42.85,2.06-56.75c.1-14.74,1-31.42-3.93-39.05-12.75-19.93-22.1-31.87-29.7-53.56s-9-52.84-10.08-76.71c-.5-11.11-5-37.08-7.25-61.87-.72-7.92-1-15.15-1.79-22.2-1.63-14.65-.31-32.93,9-34.17,11.36-1.51,14.53,9.94,17,25.31,1.06,6.64,2.63,13.84,3.62,21.34,3.3,25.06,5.44,40,8.54,50.31.41,1.36,4.75-.95,4.47-3.39C43.06,160,41,136.93,38.84,106.55,38,95.09,36.92,80.34,36.13,68c-1.45-22.6,3.51-35.12,13.56-36.34C61.62,30.25,65.06,39.29,66.81,57c.87,8.79,1.62,19.36,2.41,31.09,2,30.55,3.8,56.55,6.51,61.84.39.76,3.25-.23,3.25-1.08,0-1.94,1.18-59.66,2.17-82.45.34-7.88.44-18.06.36-27.12C81.33,18.14,83.68,1.28,96.29,1c15.09-.32,17.4,14.06,17.95,43.71.18,9.77.54,20.89.54,32.55,0,48.83-2.17,53.52-1.08,65.09.13,1.35,5.08,1.31,5.42,0,2.08-7.87,7.87-46.92,11.12-63.19,1.29-6.44,4.64-29.41,7.5-42.4C140.82,22.84,143.3,5,158,6.57c16.63,1.81,14.57,18.67,12.29,40.86-1.38,13.48-4.47,28.86-5.61,42.85-3.44,42.4-9,69.26-5.88,91.49,2.44,17.63,10.53,25.07,16.54,23.69,4.7-1.08,12.18-14.29,15.17-19.11,6.59-10.61,13.24-20.8,22.3-29.51,8.49-8.16,22.66-17.2,34.51-10.07a8,8,0,0,1,3,3.18,7.31,7.31,0,0,1,.66,5.15c-2.27,9.07-11,15.41-15.84,23.06-7.54,12-16.46,28.94-20.61,42.31-5,16.17-14.61,44.1-26.13,64.37-6.78,11.93-21.11,26.7-28.21,36.21-6.78,9.09-5.61,20-6,34.31-.27,10.85,1.07,56.6,1.07,66"/><path class="cls-3" d="M22.57,223.72c26.13-9.13,55.42-20.25,79-34.08"/><path class="cls-3" d="M145.8,188.71c-5.27,1.14-25.72,8.88-30.11,11-11.81,5.77-23.78,11.09-35.91,19.21"/><path class="cls-3" d="M159,209.07c-4.34,1.08-40.68,22-45.83,72.14"/><path class="cls-3" d="M143.26,53.53s13.83.95,17.09,2"/><path class="cls-3" d="M133.22,104.38s14.1,0,19.53,2.17"/><path class="cls-3" d="M201.93,173.59s3.86,6.64,8.54,10.31"/><path class="cls-3" d="M130.81,144.81s8.65.76,13.86,3.4"/><path class="cls-3" d="M90.28,146.24c2.08-.45,10.76-1.9,14-1.9"/><path class="cls-3" d="M85.49,95.7c6.51,0,13-1.08,18.44,0"/><path class="cls-3" d="M86.57,46.89a99.27,99.27,0,0,1,17.36-1.08"/><path class="cls-3" d="M55.09,162.86A30.64,30.64,0,0,1,63,157.64"/><path class="cls-3" d="M47.52,113.06A25.76,25.76,0,0,1,58.46,110"/><path class="cls-3" d="M43.18,77.26C46.43,76.18,51.86,74,57.28,74"/><path class="cls-3" d="M21.66,187a57.94,57.94,0,0,1,8.5-5.24"/><path class="cls-3" d="M11.72,144.52a28,28,0,0,1,11.66-4"/><path class="cls-3" d="M9.62,115A30.18,30.18,0,0,1,18,113.33"/><path class="cls-3" d="M175.35,211.42c1.08,5.79,5.61,14.74,12.11,20.93"/></g></g></g></svg>