<?xml version="1.0" encoding="utf-8"?>
<!-- Generator: Adobe Illustrator 19.0.0, SVG Export Plug-In . SVG Version: 6.00 Build 0)  -->
<svg version="1.1" xmlns="http://www.w3.org/2000/svg" xmlns:xlink="http://www.w3.org/1999/xlink" x="0px" y="0px"
	 viewBox="0 0 248.5 422.5" style="enable-background:new 0 0 248.5 422.5;" xml:space="preserve">
<style type="text/css">
	.st0{fill:none;stroke:#75A1D6;stroke-width:3;stroke-miterlimit:10;}
	.st1{display:none;}
	.st2{display:inline;}
	.st3{fill:none;stroke:#010202;stroke-miterlimit:10;}
</style>
<g id="HT100R">
	<g id="XMLID_31_">
		<path id="XMLID_28_" class="st0" d="M181.4,49.6c0.6-11.6-7.8-21.3-18-21.3c-10.1,0.1-18.3,9.8-17.8,21.3v100
			c0,3.7-2.5,14.5-5.8,14.5c-3.3,0-6.2-10.9-6.2-14.5c0-42.2,0-84.5,0-126.7c0.5-11.5-7.9-21.2-18-21.1c-10,0.1-18.1,9.7-17.7,21.1
			v126.7c0,3.7-2,16.3-5.4,16.3c-3.2,0-6.6-12.7-6.6-16.3c0-37.8,0-75.6,0-113.4c0.4-11.5-8-21.1-18.1-21c-9.9,0.2-18,9.7-17.6,21
			V163c0,3.6-2.4,13.7-5.8,13.7c-3.3,0-6.2-10.1-6.2-13.7V76.2c1-12.2-7.5-22.6-17.5-22.8C10.6,53.2,1.6,63.7,2.6,76.2v180
			c0.8,17.3,4.8,47.1,24,68c0.9,1,3.5,3.8,7.3,6.9c2,1.6,3.9,3.1,5.9,4.5c0.2,0.2,0.5,0.3,0.7,0.5c19.2,12.8,39.2,13.6,52.8,13.6
			c0,0,31.5,1.3,57.7-13.5c2.5-1.4,4.8-3,4.8-3c2.2-1.5,4.8-3.3,7.7-5.6c9.7-8,17.4-17.7,23.6-28.2c16.6-28.2,55.5-94.1,55.5-94.1
			c7-12.3,5.5-27.1-4.6-34.3c-12.5-5.9-25.1-2.4-32.4,10.4c-5.8,10.2-11.6,20.1-17.4,30.3c-1.5,2.7-7.2,15.1-7.1,9.9
			C181.8,138.7,181.6,55,181.4,49.6 M38.4,76.2"/>
		<path id="XMLID_27_" class="st0" d="M167.7,249.3c-18.4-5.5-38,0.4-50.5,15.5c-9.6,11.6-11.9,25-12.6,30.6"/>
		<path id="XMLID_26_" class="st0" d="M147.2,178.2c-14.2-0.8-31.6-0.4-51.3,2.9c-21,3.5-38.7,9.5-52.6,15.3"/>
		<path id="XMLID_24_" class="st0" d="M53.6,418.7h77.7c6.6,0,12.1-5.4,12.1-12.1v-41.2c0-6.6-5.4-12.1-12.1-12.1H53.6
			c-6.6,0-12.1,5.4-12.1,12.1v41.2C41.5,413.3,46.9,418.7,53.6,418.7z"/>
	</g>
</g>
<g id="Orginal" class="st1">
	<g id="XMLID_1_" class="st2">
		<path id="XMLID_3_" class="st3" d="M69.2,50.8c-0.2,5.5-0.7,71.8,0,154.6c0,5.2-3.3,7-5,4.5c-6.4-9.8-12.8-19.6-19.2-29.4
			c-6.2-12.8-20.8-16.8-31.4-9.4C3.5,178.4,1,194.1,8,206.5c0,0,38.9,65.9,55.5,94.1c6.2,10.6,13.8,20.2,23.6,28.2
			c2.8,2.3,5.5,4.2,7.7,5.6c0,0,2.4,1.5,4.8,3c26.1,14.8,57.7,13.5,57.7,13.5c13.6,0,33.6-0.8,52.8-13.6c0.2-0.2,0.5-0.3,0.7-0.5
			c2-1.4,4-2.8,5.9-4.5c3.8-3.1,6.3-5.9,7.3-6.9c19.2-20.9,23.2-50.7,24-68v-180c1-12.5-8-23-18.3-22.8c-10,0.2-18.6,10.6-17.5,22.8
			v86.7c0,3.6-2.7,6.6-5.9,6.6c-3.3,0-6-3-6-6.6V37.5c0.4-11.3-7.7-20.8-17.6-21c-10.1-0.2-18.5,9.5-18.1,21c0,37.8,0,75.6,0,113.4
			c0,3.7-2.7,6.6-5.9,6.6c-3.3,0-6-3-6-6.6V24.1c0.5-11.4-7.7-21-17.7-21.1c-10.1-0.1-18.5,9.6-18,21.1c0,42.2,0,84.5,0,126.7
			c0,3.7-2.7,6.6-6,6.6c-3.2,0-5.9-3-5.9-6.6v-100c0.5-11.5-7.7-21.2-17.8-21.3C77,29.5,68.6,39.3,69.2,50.8 M212.1,77.5"/>
		<path id="XMLID_7_" class="st3" d="M74.4,215.4c19.2,0.7,35.9,12.6,42.8,30.9c5.4,14.1,3.3,27.5,2.1,33"/>
		<path id="XMLID_6_" class="st3" d="M105,168.7c14.2-0.8,31.6-0.4,51.3,2.9c21,3.5,38.7,9.5,52.6,15.3"/>
		<path id="XMLID_5_" class="st3" d="M202.1,419.9h-87.9c-3.8,0-7-3.1-7-7v-51.3c0-3.8,3.1-7,7-7h87.9c3.8,0,7,3.1,7,7V413
			C209,416.8,205.9,419.9,202.1,419.9z"/>
		<path id="XMLID_4_" class="st3" d="M203.4,361.2"/>
		<path id="XMLID_10_" class="st3" d="M106.1,341"/>
		<path id="XMLID_20_" class="st3" d="M113.6,361.5"/>
	</g>
</g>
</svg>
