<?xml version="1.0" encoding="utf-8"?>
<!-- Generator: Adobe Illustrator 19.0.0, SVG Export Plug-In . SVG Version: 6.00 Build 0)  -->
<svg version="1.1" xmlns="http://www.w3.org/2000/svg" xmlns:xlink="http://www.w3.org/1999/xlink" x="0px" y="0px"
	 viewBox="0 0 400 400" style="enable-background:new 0 0 400 400;" xml:space="preserve">
<style type="text/css">
	.st0{fill:#609EEB;stroke:#609EEB;stroke-width:5;stroke-miterlimit:10;}
	.st1{display:none;}
	.st2{display:inline;}
	.st3{fill:#609EEB;}
</style>
<g id="Login-Username">
	<g>
		<path class="st0" d="M198.2,211.8h2.6c23.4-0.4,42.4-8.6,56.4-24.4c30.8-34.7,25.7-94.2,25.1-99.9c-2-42.6-22.2-63-38.8-72.6
			c-12.4-7.1-26.9-11-43-11.3h-1.4c-8.9,0-26.3,1.4-43,11c-16.8,9.5-37.3,29.9-39.3,72.9c-0.6,5.7-5.7,65.2,25.1,99.9
			C155.8,203.2,174.8,211.4,198.2,211.8L198.2,211.8z M138.1,89.5c0-0.2,0.1-0.5,0.1-0.6c2.6-57.4,43.4-63.5,60.8-63.5h1
			c21.6,0.5,58.3,9.3,60.8,63.5c0,0.2,0,0.5,0.1,0.6c0.1,0.6,5.7,55-19.8,83.6c-10.1,11.4-23.5,17-41.2,17.1h-0.8
			c-17.6-0.2-31.1-5.8-41.1-17.1C132.6,144.6,138,90,138.1,89.5L138.1,89.5z M138.1,89.5"/>
		<path class="st0" d="M363.9,310.6v-0.2c0-0.6-0.1-1.3-0.1-2c-0.5-15.8-1.5-52.9-36.2-64.7c-0.2-0.1-0.6-0.2-0.8-0.2
			c-36.1-9.2-66.1-30-66.4-30.2c-4.9-3.4-11.6-2.2-15,2.6c-3.4,4.9-2.2,11.6,2.6,15c1.4,1,33.2,23.1,73,33.4
			c18.6,6.6,20.7,26.6,21.3,44.8c0,0.7,0,1.4,0.1,2c0.1,7.2-0.4,18.3-1.7,24.7c-13,7.4-63.8,32.8-141,32.8
			c-77,0-128.1-25.5-141.1-32.9c-1.3-6.4-1.8-17.5-1.7-24.7c0-0.6,0.1-1.3,0.1-2c0.6-18.2,2.6-38.2,21.3-44.8
			c39.8-10.2,71.7-32.5,73-33.4c4.9-3.4,6.1-10.2,2.6-15c-3.4-4.9-10.2-6.1-15-2.6c-0.3,0.2-30.2,21-66.4,30.2
			c-0.3,0.1-0.6,0.2-0.8,0.2c-34.7,11.9-35.8,49-36.2,64.7c0,0.7,0,1.4-0.1,2v0.2c-0.1,4.2-0.2,25.5,4.1,36.2c0.8,2.1,2.2,3.8,4.2,5
			c2.4,1.6,59.9,38.2,156.2,38.2s153.8-36.7,156.2-38.2c1.8-1.2,3.4-3,4.2-5C364,336.1,364,314.7,363.9,310.6L363.9,310.6z
			 M363.9,310.6"/>
	</g>
</g>
<g id="Login-Password" class="st1">
	<g class="st2">
		<path class="st3" d="M320.5,153h-14v-39.4C306.5,55.4,259.1,8,200.9,8C142.7,8,95.4,55.4,95.4,113.5v39.4H81.5
			c-13.8,0-25,11.2-25,25v186.5c0,13.8,11.2,25,25,25h239.1c13.8,0,25-11.2,25-25V177.9C345.4,164.2,334.2,153,320.5,153L320.5,153z
			 M127.2,113.5c0-40.7,33.1-73.8,73.8-73.8c40.7,0,73.8,33.1,73.8,73.8v39.3H127.2V113.5z M313.6,357.6H88.2V184.7h225.5
			L313.6,357.6L313.6,357.6z M313.6,357.6"/>
		<path class="st3" d="M200.9,333.8c8.8,0,15.9-7.1,15.9-15.9V277c0-8.8-7.1-15.9-15.9-15.9c-8.8,0-15.9,7.1-15.9,15.9V318
			C185.1,326.7,192.1,333.8,200.9,333.8L200.9,333.8z M200.9,333.8"/>
	</g>
</g>
</svg>
