<?xml version="1.0" encoding="utf-8"?>
<!-- Generator: Adobe Illustrator 19.0.0, SVG Export Plug-In . SVG Version: 6.00 Build 0)  -->
<svg version="1.1" id="Layer_1" xmlns="http://www.w3.org/2000/svg" xmlns:xlink="http://www.w3.org/1999/xlink" x="0px" y="0px"
	 viewBox="0 0 30 30" style="enable-background:new 0 0 30 30;" xml:space="preserve">
<style type="text/css">
	.st0{fill:#FFFFFF;}
</style>
<g>
	<g>
		<path class="st0" d="M1,7.9V22c0,2,1.6,3.5,3.5,3.5H16c1.9,0,3.5-1.6,3.5-3.5v-2.3c0-0.4-0.3-0.7-0.7-0.7s-0.7,0.3-0.7,0.7V22
			c0,1.2-1,2.1-2.1,2.1H4.5c-1.2,0-2.1-1-2.1-2.1V7.9c0-1.2,1-2.1,2.1-2.1H16c1.2,0,2.1,1,2.1,2.1v2.3c0,0.4,0.3,0.7,0.7,0.7
			c0.4,0,0.7-0.3,0.7-0.7V7.9c0-1.9-1.6-3.5-3.5-3.5H4.5C2.6,4.3,1,5.9,1,7.9L1,7.9z M1,7.9"/>
		<path class="st0" d="M23,20.2c0.1,0.1,0.3,0.2,0.5,0.2c0.2,0,0.4-0.1,0.5-0.2l4.8-4.8c0.3-0.3,0.3-0.7,0-1L24,9.7
			c-0.3-0.3-0.7-0.3-1,0c-0.3,0.3-0.3,0.7,0,1l3.6,3.6H13.5c-0.4,0-0.7,0.3-0.7,0.7c0,0.4,0.3,0.7,0.7,0.7h13.1L23,19.3
			C22.7,19.5,22.7,20,23,20.2L23,20.2z M23,20.2"/>
	</g>
</g>
</svg>
