<?xml version="1.0" encoding="utf-8"?>
<!-- Generator: Adobe Illustrator 19.0.0, SVG Export Plug-In . SVG Version: 6.00 Build 0)  -->
<svg version="1.1" id="Layer_1" xmlns="http://www.w3.org/2000/svg" xmlns:xlink="http://www.w3.org/1999/xlink" x="0px" y="0px"
	 viewBox="0 0 30 30" style="enable-background:new 0 0 30 30;" xml:space="preserve">
<style type="text/css">
	.st0{fill:#7BADDE;}
</style>
<g>
	<path class="st0" d="M24.1,4.7H5.9C5,4.7,4.2,5.5,4.2,6.4v17.2c0,0.9,0.8,1.7,1.7,1.7h18.2c0.9,0,1.7-0.8,1.7-1.7V6.4
		C25.8,5.5,25,4.7,24.1,4.7L24.1,4.7z M9.1,11.2c-1.2,0-2.2-1-2.2-2.2c0-1.2,1-2.2,2.2-2.2c1.2,0,2.2,1,2.2,2.2
		C11.4,10.2,10.4,11.2,9.1,11.2L9.1,11.2z M21,17.2c-1.2,0-2.2-1-2.2-2.2c0-1.2,1-2.2,2.2-2.2c1.2,0,2.2,1,2.2,2.2
		C23.2,16.2,22.2,17.2,21,17.2L21,17.2z M9.2,17.2c-1.2,0-2.2-1-2.2-2.2c0-1.2,1-2.2,2.2-2.2c1.2,0,2.2,1,2.2,2.2
		C11.4,16.2,10.4,17.2,9.2,17.2L9.2,17.2z M21.1,23.1c-1.2,0-2.2-1-2.2-2.2c0-1.2,1-2.2,2.2-2.2c1.2,0,2.2,1,2.2,2.2
		C23.4,22.1,22.4,23.1,21.1,23.1L21.1,23.1z M21,11.3c-1.2,0-2.2-1-2.2-2.2c0-1.2,1-2.2,2.2-2.2c1.2,0,2.2,1,2.2,2.2
		C23.2,10.3,22.2,11.3,21,11.3L21,11.3z M9.2,23C8,23,7,22.1,7,20.8c0-1.2,1-2.2,2.2-2.2c1.2,0,2.2,1,2.2,2.2
		C11.4,22.1,10.4,23,9.2,23L9.2,23z M9.2,23"/>
</g>
</svg>
