<?xml version="1.0" encoding="utf-8"?>
<!-- Generator: Adobe Illustrator 19.0.0, SVG Export Plug-In . SVG Version: 6.00 Build 0)  -->
<svg version="1.1" xmlns="http://www.w3.org/2000/svg" xmlns:xlink="http://www.w3.org/1999/xlink" x="0px" y="0px"
	 viewBox="0 0 32 32" style="enable-background:new 0 0 32 32;" xml:space="preserve">
<style type="text/css">
	.st0{display:none;}
	.st1{display:inline;}
	.st2{fill:#53B57D;}
	.st3{fill:#DD5B57;}
	.st4{fill:#7AABDD;}
	.st5{display:inline;fill:#7AABDD;}
</style>
<g id="RemoteSessionCall" class="st0">
	<g class="st1">
		<path class="st2" d="M16,0.1C7.2,0.1,0.1,7.2,0.1,16c0,8.8,7.1,15.9,15.9,15.9c8.8,0,15.9-7.1,15.9-15.9C31.9,7.2,24.8,0.1,16,0.1
			L16,0.1z M24.4,23.3l-1.3,1.3c-0.2,0.2-0.9,0.4-0.9,0.4c-4,0-7.9-1.5-10.8-4.4C8.6,17.7,7,13.8,7.1,9.8c0,0,0.1-0.6,0.4-0.9
			l1.3-1.3c0.5-0.5,1.4-0.7,2-0.5L11,7.2c0.6,0.2,1.3,0.9,1.5,1.5l0.6,2.4c0.2,0.6-0.1,1.5-0.5,2L11.7,14c0.8,3.1,3.3,5.5,6.3,6.4
			l0.9-0.9c0.5-0.5,1.4-0.7,2-0.5l2.4,0.6c0.6,0.2,1.3,0.8,1.5,1.5l0.1,0.3C25.1,21.9,24.9,22.8,24.4,23.3L24.4,23.3z M24.4,23.3"/>
	</g>
</g>
<g id="RemoteSessionDisconnect">
	<g>
		<g>
			<path class="st3" d="M27.2,27.3c6.2-6.2,6.3-16.2,0.1-22.5C21.1-1.4,11.1-1.5,4.8,4.7c-6.2,6.2-6.3,16.2-0.1,22.5
				C10.9,33.4,20.9,33.5,27.2,27.3L27.2,27.3z M4.9,16.7l0-1.8c0-0.3,0.4-0.9,0.4-0.9C8.1,11.1,12,9.5,16,9.6c4,0,7.9,1.7,10.7,4.6
				c0,0,0.4,0.6,0.3,0.9l0,1.8c0,0.7-0.5,1.4-1.1,1.7l-0.3,0.1c-0.6,0.3-1.5,0.3-2.1-0.1l-2.1-1.2c-0.6-0.3-1-1.1-1-1.8l0-1.2
				c-2.8-1.6-6.2-1.6-9-0.1l0,1.2c0,0.7-0.5,1.5-1.1,1.8l-2.1,1.2c-0.6,0.3-1.5,0.3-2.1,0L6,18.4C5.4,18.2,4.9,17.4,4.9,16.7
				L4.9,16.7z M4.9,16.7"/>
		</g>
	</g>
</g>
<g id="SpeakerON" class="st0">
	<g class="st1">
		<g>
			<path class="st4" d="M16,0.1C7.2,0.1,0.1,7.2,0.1,16c0,8.8,7.1,15.9,15.9,15.9c8.8,0,15.9-7.1,15.9-15.9
				C31.9,7.2,24.8,0.1,16,0.1L16,0.1z M22.4,26c0,0.9-0.7,1.6-1.6,1.6c-0.3,0-0.6-0.1-0.8-0.2c0,0-0.1,0-0.1-0.1l-7-6.5
				c-0.1,0-0.2-0.1-0.3-0.1H8.1c-0.9,0-1.6-0.7-1.6-1.6v-6.8c0-0.9,0.7-1.6,1.6-1.6h4.4c0.1,0,0.2,0,0.3-0.1l7-6.5
				c0,0,0.1,0,0.1-0.1c0.3-0.1,0.5-0.2,0.8-0.2c0.9,0,1.6,0.7,1.6,1.6V26z M22.4,26"/>
		</g>
	</g>
</g>
<g id="SpeakerOFF" class="st0">
	<g class="st1">
		<g>
			<path class="st4" d="M27.5,4.5c-0.2-0.2-0.5-0.2-0.8,0L4.5,26.8c-0.2,0.2-0.2,0.5,0,0.8c0.1,0.1,0.2,0.2,0.4,0.2
				c0.1,0,0.3-0.1,0.4-0.2L27.5,5.2C27.7,5,27.7,4.7,27.5,4.5L27.5,4.5z M27.5,4.5"/>
			<path class="st4" d="M28.1,5.7l-5.7,5.7V26c0,0.9-0.7,1.6-1.6,1.6c-0.3,0-0.6-0.1-0.8-0.2c0,0-0.1,0-0.1-0.1l-6.9-6.4l-7.2,7.2
				c2.9,2.5,6.5,3.8,10.3,3.8c4.2,0,8.2-1.7,11.2-4.7c3-3,4.7-7,4.7-11.2C31.9,12.2,30.6,8.6,28.1,5.7L28.1,5.7z M28.1,5.7"/>
			<path class="st4" d="M8.1,20.8c-0.9,0-1.6-0.7-1.6-1.6v-6.8c0-0.9,0.7-1.6,1.6-1.6h4.4c0.1,0,0.2,0,0.3-0.1l7-6.5
				c0,0,0.1,0,0.1-0.1c0.3-0.1,0.5-0.2,0.8-0.2c0.9,0,1.6,0.7,1.6,1.6v2.4l3.9-3.9C23.4,1.4,19.8,0.1,16,0.1
				c-4.2,0-8.2,1.7-11.2,4.7c-3,3-4.7,7-4.7,11.2c0,3.8,1.3,7.4,3.8,10.3l5.5-5.5H8.1z M8.1,20.8"/>
		</g>
	</g>
</g>
<g id="MicrophoneOFF" class="st0">
	<path class="st5" d="M16,0.1C7.2,0.1,0.1,7.2,0.1,16S7.2,31.9,16,31.9S31.9,24.8,31.9,16S24.8,0.1,16,0.1z M11.5,8.6
		c0-2.5,2-4.5,4.5-4.5c2.5,0,4.5,2,4.5,4.5v0.2l-9,9V8.6z M25.3,6.4L10.8,20.9c0.9,1.9,2.9,3.3,5.2,3.3c3.2,0,5.7-2.6,5.7-5.7V16
		c0-0.2,0.2-0.4,0.4-0.4c0.2,0,0.4,0.2,0.4,0.4v2.5c0,3.5-2.7,6.3-6.1,6.5v2.1h2c0.2,0,0.4,0.2,0.4,0.4c0,0.2-0.2,0.4-0.4,0.4h-4.9
		c-0.2,0-0.4-0.2-0.4-0.4c0-0.2,0.2-0.4,0.4-0.4h2V25c-2.3-0.1-4.3-1.5-5.4-3.5l-3.3,3.4C6.8,25,6.7,25,6.6,25c-0.1,0-0.2,0-0.3-0.1
		c-0.2-0.2-0.2-0.4,0-0.6l3.6-3.6c-0.3-0.7-0.4-1.5-0.4-2.3V16c0-0.2,0.2-0.4,0.4-0.4c0.2,0,0.4,0.2,0.4,0.4v2.5
		c0,0.6,0.1,1.1,0.2,1.6L24.7,5.9c0.2-0.2,0.4-0.2,0.6,0C25.5,6,25.5,6.3,25.3,6.4z M20.5,12.5v6c0,2.5-2,4.5-4.5,4.5
		c-1.6,0-3-0.9-3.8-2.1L20.5,12.5z"/>
</g>
<g id="MicrophoneON" class="st0">
	<path class="st5" d="M16,0.1C7.2,0.1,0.1,7.2,0.1,16S7.2,31.9,16,31.9S31.9,24.8,31.9,16S24.8,0.1,16,0.1z M11.5,8.6
		c0-2.5,2-4.5,4.5-4.5c2.5,0,4.5,2,4.5,4.5v9.8c0,2.5-2,4.5-4.5,4.5c-2.5,0-4.5-2-4.5-4.5V8.6z M22.6,18.5c0,3.5-2.7,6.3-6.2,6.5
		v2.1h2.1c0.2,0,0.4,0.2,0.4,0.4c0,0.2-0.2,0.4-0.4,0.4h-4.9c-0.2,0-0.4-0.2-0.4-0.4c0-0.2,0.2-0.4,0.4-0.4h2.1V25
		c-3.4-0.2-6.2-3.1-6.2-6.5V16c0-0.2,0.2-0.4,0.4-0.4c0.2,0,0.4,0.2,0.4,0.4v2.5c0,3.2,2.6,5.7,5.7,5.7c3.2,0,5.7-2.6,5.7-5.7V16
		c0-0.2,0.2-0.4,0.4-0.4c0.2,0,0.4,0.2,0.4,0.4V18.5z"/>
</g>
</svg>
