<svg xmlns="http://www.w3.org/2000/svg" viewBox="0 0 77.9 98.22"><defs><style>.cls-1{isolation:isolate;}.cls-2{fill:none;stroke:#71b0fb;stroke-linecap:round;stroke-linejoin:round;stroke-width:2px;}.cls-3{fill:#f5faff;mix-blend-mode:multiply;}</style></defs><title>Asset 32</title><g class="cls-1"><g id="Layer_2" data-name="Layer 2"><g id="Layer_11" data-name="Layer 11"><path class="cls-2" d="M1,62.27C5.7,61.19,13.18,48,16.17,43.17c6.59-10.61,13.24-20.8,22.3-29.51C47,5.49,61.13-3.55,73,3.58a8,8,0,0,1,3,3.18,7.31,7.31,0,0,1,.66,5.15C74.43,21,65.67,27.32,60.85,35c-7.54,12-16.46,28.94-20.61,42.31-1.72,5.53-4,12.44-6.65,19.94"/><path class="cls-2" d="M27.58,30.4S31.44,37,36.12,40.71"/><path class="cls-2" d="M1,68.24C2.08,74,6.61,83,13.11,89.17"/><path class="cls-3" d="M33.59,97.22c2.68-7.5,4.93-14.41,6.65-19.94C44.39,63.9,53.31,46.92,60.85,35c4.82-7.65,13.58-14,15.84-23.06A7.31,7.31,0,0,0,76,6.76a8,8,0,0,0-3-3.18C61.13-3.55,47,5.49,38.48,13.65c-9.07,8.71-15.72,18.9-22.3,29.51C13.18,48,5.7,61.19,1,62.27c0,0-3.83,5,7,21.55C16.46,96.82,33.59,97.22,33.59,97.22Z"/></g></g></g></svg>